<svg width="40" height="40" viewBox="0 0 40 40" fill="none" xmlns="http://www.w3.org/2000/svg">
  <!-- Green Office Villas Logo - Green leaf design -->
  <rect width="40" height="40" rx="8" fill="#10B981"/>
  <path d="M12 28C12 28 16 24 20 24C24 24 28 28 28 28V32C28 33.1046 27.1046 34 26 34H14C12.8954 34 12 33.1046 12 32V28Z" fill="white"/>
  <path d="M20 8C16 8 12 12 12 16C12 20 16 24 20 24C24 24 28 20 28 16C28 12 24 8 20 8Z" fill="white"/>
  <path d="M20 12C18 12 16 14 16 16C16 18 18 20 20 20C22 20 24 18 24 16C24 14 22 12 20 12Z" fill="#10B981"/>
</svg>
